<?xml version="1.0" encoding="UTF-8"?>
<svg version="1.1" xmlns="http://www.w3.org/2000/svg" width="814" height="815">
<path d="M0 0 C1.32041794 0.00140488 1.32041794 0.00140488 2.66751099 0.00283813 C89.5675075 0.20237776 178.30223334 28.4169421 246.74365234 82.70751953 C248.53781628 84.11891607 250.35028201 85.50056352 252.17578125 86.87109375 C258.36245136 91.52183087 264.23384718 96.38526358 269.89453125 101.66796875 C271.97750328 103.59002449 274.08354111 105.44221326 276.234375 107.28515625 C281.21320709 111.6273719 285.89187166 116.26830715 290.56079102 120.93798828 C292.05141615 122.42643237 293.54987017 123.90667277 295.04882812 125.38671875 C301.35952887 131.66105689 307.07069363 138.22399724 312.625 145.1875 C313.55985909 146.28926066 314.5012011 147.38560568 315.453125 148.47265625 C332.25448294 167.74001995 345.85443553 189.43015873 358.25097656 211.71826172 C359.1070415 213.25668404 359.96758953 214.79263091 360.83496094 216.32470703 C390.11639079 268.11956929 407.59730556 332.26170489 407.828125 391.84375 C407.83382507 393.02553833 407.83952515 394.20732666 407.84539795 395.42492676 C407.85479026 397.91918053 407.86135878 400.4134464 407.86523438 402.90771484 C407.87483157 406.6223078 407.90586653 410.33632018 407.9375 414.05078125 C408.03381462 435.78181235 406.21477035 457.28786492 402.375 478.6875 C402.05921997 480.4655603 402.05921997 480.4655603 401.73706055 482.27954102 C395.68638533 515.21533228 385.32910914 546.67156186 371.625 577.1875 C371.05531494 578.47140625 371.05531494 578.47140625 370.47412109 579.78125 C355.8440106 612.57582189 335.66246732 642.72430997 312.625 670.1875 C311.86316406 671.13496094 311.10132813 672.08242188 310.31640625 673.05859375 C303.25603697 681.70724068 295.43233839 689.5966169 287.5625 697.5 C287.00805206 698.05962433 286.45360413 698.61924866 285.88235474 699.1958313 C279.51092134 705.61406419 273.06883922 711.69101851 265.96704102 717.3046875 C263.75948069 719.07938835 261.68676286 720.9344363 259.625 722.875 C247.74447103 733.54192655 234.10258168 742.65554744 220.625 751.1875 C219.55838135 751.86280762 219.55838135 751.86280762 218.47021484 752.55175781 C163.45735634 787.06638286 100.50057995 809.01325079 35.625 814.1875 C34.58375977 814.27362549 33.54251953 814.35975098 32.46972656 814.44848633 C22.05704783 815.23328084 11.68813368 815.38944647 1.25 815.375 C0.36972137 815.37406342 -0.51055725 815.37312683 -1.41751099 815.37216187 C-88.3175075 815.17262224 -177.05223334 786.9580579 -245.49365234 732.66748047 C-247.28781628 731.25608393 -249.10028201 729.87443648 -250.92578125 728.50390625 C-257.11245136 723.85316913 -262.98384718 718.98973642 -268.64453125 713.70703125 C-270.72750328 711.78497551 -272.83354111 709.93278674 -274.984375 708.08984375 C-279.96320709 703.7476281 -284.64187166 699.10669285 -289.31079102 694.43701172 C-290.80141615 692.94856763 -292.29987017 691.46832723 -293.79882812 689.98828125 C-300.10952887 683.71394311 -305.82069363 677.15100276 -311.375 670.1875 C-312.30985909 669.08573934 -313.2512011 667.98939432 -314.203125 666.90234375 C-331.00448294 647.63498005 -344.60443553 625.94484127 -357.00097656 603.65673828 C-357.8570415 602.11831596 -358.71758953 600.58236909 -359.58496094 599.05029297 C-388.86639079 547.25543071 -406.34730556 483.11329511 -406.578125 423.53125 C-406.58382507 422.34946167 -406.58952515 421.16767334 -406.59539795 419.95007324 C-406.60479026 417.45581947 -406.61135878 414.9615536 -406.61523438 412.46728516 C-406.62483157 408.7526922 -406.65586653 405.03867982 -406.6875 401.32421875 C-406.78381462 379.59318765 -404.96477035 358.08713508 -401.125 336.6875 C-400.91447998 335.50212646 -400.70395996 334.31675293 -400.48706055 333.09545898 C-394.43638533 300.15966772 -384.07910914 268.70343814 -370.375 238.1875 C-369.99520996 237.3315625 -369.61541992 236.475625 -369.22412109 235.59375 C-354.5940106 202.79917811 -334.41246732 172.65069003 -311.375 145.1875 C-310.61316406 144.24003906 -309.85132813 143.29257813 -309.06640625 142.31640625 C-302.00603697 133.66775932 -294.18233839 125.7783831 -286.3125 117.875 C-285.75805206 117.31537567 -285.20360413 116.75575134 -284.63235474 116.1791687 C-278.26092134 109.76093581 -271.81883922 103.68398149 -264.71704102 98.0703125 C-262.50948069 96.29561165 -260.43676286 94.4405637 -258.375 92.5 C-246.49447103 81.83307345 -232.85258168 72.71945256 -219.375 64.1875 C-218.6639209 63.73729492 -217.9528418 63.28708984 -217.22021484 62.82324219 C-162.20735634 28.30861714 -99.25057995 6.36174921 -34.375 1.1875 C-33.33375977 1.10137451 -32.29251953 1.01524902 -31.21972656 0.92651367 C-20.80704783 0.14171916 -10.43813368 -0.01444647 0 0 Z " fill="#FCFDFD" transform="translate(406.375,-0.1875)"/>
<path d="M0 0 C1.22346634 -0.00060425 1.22346634 -0.00060425 2.47164917 -0.0012207 C40.1790369 0.10578594 70.18497033 16.38885154 101.73828125 35.55078125 C108.12586872 39.42090208 114.58335003 43.16075037 121.0625 46.875 C133.45185981 53.98580439 145.74240465 61.25320647 158.02001953 68.5546875 C173.35422089 77.66963747 188.73960573 86.69501833 204.15527344 95.67138672 C210.15616899 99.16659432 216.15395301 102.66713976 222.15185547 106.16748047 C227.34903353 109.20009234 232.54807551 112.22944217 237.75 115.25390625 C238.82765625 115.88103516 239.9053125 116.50816406 241.015625 117.15429688 C243.06710354 118.34804516 245.11914906 119.54081984 247.171875 120.73242188 C249.84948716 122.29128034 252.52033826 123.86083996 255.1875 125.4375 C255.99960937 125.91300293 256.81171875 126.38850586 257.6484375 126.87841797 C259.53014968 128.00785793 261.36508837 129.21467899 263.1875 130.4375 C263.1875 131.0975 263.1875 131.7575 263.1875 132.4375 C262.00945801 133.06410522 262.00945801 133.06410522 260.80761719 133.70336914 C257.83199566 135.28758375 254.85753845 136.87394568 251.88378906 138.46166992 C250.60819182 139.14219113 249.33216513 139.8219081 248.05566406 140.50073242 C246.19736844 141.48914084 244.34087796 142.48088575 242.484375 143.47265625 C241.86695435 143.79948395 241.24953369 144.12631165 240.61340332 144.46304321 C236.5968081 146.60948154 232.78869391 148.97344944 228.953125 151.43359375 C223.25578336 154.75613069 218.68690662 155.81212271 212.1875 154.4375 C208.49916909 153.08373323 205.24027502 151.26493939 201.875 149.25 C200.9269751 148.70754639 199.9789502 148.16509277 199.00219727 147.60620117 C196.04907162 145.90751353 193.11731333 144.17602713 190.1875 142.4375 C188.42237986 141.40538611 186.65676906 140.37411079 184.890625 139.34375 C181.29278575 137.23540011 177.70585854 135.10971112 174.125 132.97265625 C167.47949947 129.00806214 160.80297953 125.09699383 154.125 121.1875 C152.89353088 120.46618648 151.66208567 119.74483213 150.43066406 119.0234375 C148.56289283 117.92927158 146.69509953 116.83514349 144.82720947 115.74118042 C140.46197381 113.1845534 136.09786377 110.62601348 131.734375 108.06640625 C111.08017213 95.9511647 90.41676004 83.8543024 69.65380859 71.92602539 C61.95689041 67.49194388 54.3230156 62.96243821 46.76660156 58.29248047 C39.16053479 53.65022558 31.63197663 50.24669667 22.9375 48.25 C22.256875 48.08564453 21.57625 47.92128906 20.875 47.75195312 C-3.60107058 41.89382383 -27.45121538 45.84029215 -49.12890625 58.3515625 C-55.96968686 62.73735032 -61.94481784 67.83699777 -67.8125 73.4375 C-68.41449219 73.96472656 -69.01648438 74.49195312 -69.63671875 75.03515625 C-83.77965254 87.925336 -93.77617887 109.37577971 -95.9207859 128.18832779 C-96.00503019 128.92363244 -96.08927448 129.6589371 -96.17607162 130.41652371 C-97.08850216 139.08007445 -97.09682636 147.72196505 -97.07992554 156.42425537 C-97.08367144 158.28012279 -97.08827667 160.13598864 -97.09365618 161.99185205 C-97.10578505 167.04362685 -97.10563779 172.09533494 -97.10326743 177.14712095 C-97.10285669 182.61422442 -97.11392264 188.08130722 -97.12338257 193.54840088 C-97.13993692 204.24064303 -97.14548955 214.93286313 -97.14660732 225.62511703 C-97.14756026 234.32161694 -97.15168277 243.01810962 -97.15800858 251.71460724 C-97.17560427 276.40968061 -97.18486204 301.10473888 -97.18334763 325.79981825 C-97.18330774 326.46408618 -97.18326785 327.1283541 -97.18322675 327.81275136 C-97.18314587 329.15605969 -97.18306228 330.49936801 -97.18297596 331.84267633 C-97.18175076 352.73726779 -97.19676456 373.6317943 -97.22412109 394.52636719 C-97.25490375 418.04698506 -97.27202464 441.56756732 -97.27019465 465.08820748 C-97.26953227 477.52503937 -97.27495802 489.96179797 -97.29655075 502.39861298 C-97.31481674 512.98647499 -97.31906535 523.57423048 -97.3055319 534.16210148 C-97.29903013 539.55615557 -97.29878361 544.95000561 -97.3162384 550.34403992 C-97.33209794 555.2963162 -97.32897579 560.24822883 -97.31167014 565.20049694 C-97.30862839 566.97760673 -97.31212387 568.75474455 -97.32339029 570.53182122 C-97.49675082 599.85360586 -89.76527376 628.4674334 -69.171875 650.0703125 C-68.39328125 650.85148438 -67.6146875 651.63265625 -66.8125 652.4375 C-65.95914063 653.29601562 -65.10578125 654.15453125 -64.2265625 655.0390625 C-63.03160156 656.22628906 -63.03160156 656.22628906 -61.8125 657.4375 C-60.96558594 658.28054688 -60.96558594 658.28054688 -60.1015625 659.140625 C-51.27029099 667.34997598 -40.64801492 672.99350012 -29.5 677.375 C-28.78408691 677.65730469 -28.06817383 677.93960938 -27.33056641 678.23046875 C-17.25162231 681.99881623 -7.46045507 682.81052749 3.21704102 682.80810547 C5.35450256 682.81245826 7.48985744 682.84883309 9.62695312 682.88671875 C37.67708858 683.11422491 60.80465269 667.89612569 84.1015625 654.046875 C90.22916697 650.40627386 96.37871325 646.80361472 102.53057861 643.20425415 C116.07205612 635.28052484 129.57586347 627.29493477 143.06835938 619.28808594 C162.58641428 607.70802518 182.15960782 596.22487777 201.8125 584.875 C209.45830297 580.45841487 217.06314835 575.97482747 224.66040039 571.4753418 C231.34226489 567.52067435 238.04082036 563.59563049 244.75 559.6875 C254.85931548 553.79864239 264.95704529 547.89029329 275.0480957 541.97021484 C276.28075936 541.24706629 277.51342538 540.52392177 278.74609375 539.80078125 C279.35908829 539.44115295 279.97208282 539.08152466 280.60365295 538.71099854 C284.9326804 536.17186665 289.2646177 533.6377482 293.59765625 531.10546875 C306.01858696 523.84381318 318.4040122 516.52980091 330.72875977 509.10546875 C340.57425495 503.18393116 350.48640735 497.37894966 360.40365601 491.57881165 C361.30019394 491.05446785 361.30019394 491.05446785 362.21484375 490.51953125 C362.80729889 490.17307053 363.39975403 489.8266098 364.01016235 489.46965027 C369.66231684 486.16282112 375.30166651 482.83454728 380.9375 479.5 C387.18302541 475.80482935 393.43110072 472.11423238 399.6875 468.4375 C401.75169876 467.22326544 403.81579395 466.00885495 405.87988281 464.79443359 C407.54554221 463.81498639 409.21160858 462.83623117 410.87792969 461.85791016 C417.3262931 458.07089823 423.76542037 454.26893744 430.1875 450.4375 C430.80447754 450.06995605 431.42145508 449.70241211 432.05712891 449.32373047 C457.30149977 434.17400191 471.90717869 412.33472154 479.609375 384.16796875 C484.80261739 359.64042531 479.76101945 334.77224403 466.75 313.5625 C455.89496136 297.38922095 442.92689895 285.88145995 425.86010742 276.64990234 C418.862946 272.85712848 412.02171901 268.82810015 405.1875 264.75 C396.01817117 259.2843831 386.81668701 253.88375932 377.5625 248.5625 C369.88548728 244.14790552 362.22087447 239.71609527 354.59521484 235.21337891 C347.43222055 230.98521046 340.24382778 226.80081786 333.05688477 222.61352539 C327.19463461 219.19647695 321.34229796 215.76351872 315.5 212.3125 C308.57519065 208.22718704 301.60213562 204.22967234 294.61645508 200.24951172 C287.45915968 196.1701439 280.32082275 192.05862582 273.1875 187.9375 C261.87401706 181.40257556 250.53859176 174.9068541 239.1875 168.4375 C239.1875 167.7775 239.1875 167.1175 239.1875 166.4375 C239.83074219 166.09082275 240.47398437 165.74414551 241.13671875 165.38696289 C243.06161248 164.34883146 244.9860512 163.30985614 246.91015625 162.27026367 C249.10447793 161.0849965 251.29980042 159.9015804 253.49609375 158.7199707 C258.3962987 156.07471136 263.27785827 153.42034782 268.0625 150.5703125 C268.77019531 150.15257568 269.47789062 149.73483887 270.20703125 149.30444336 C271.48411569 148.54389172 272.7531507 147.76957575 274.01171875 146.97875977 C278.36094312 144.40282168 282.25518013 143.24049348 287.1875 144.4375 C291.46743577 146.40620846 295.39152096 148.86918849 299.375 151.375 C300.56404762 152.10428665 301.75434395 152.83154079 302.94580078 153.55688477 C305.44124805 155.07722917 307.93206599 156.6047802 310.42041016 158.13671875 C315.82045497 161.44878802 321.29232286 164.63726979 326.76522827 167.82693481 C329.17577943 169.23262918 331.5833808 170.6433355 333.99104309 172.05397034 C337.69534813 174.22418398 341.40098329 176.39212634 345.10644531 178.56036377 C349.59228602 181.18524093 354.0777592 183.81074398 358.5625 186.4375 C359.18300232 186.80092499 359.80350464 187.16434998 360.44281006 187.53878784 C367.99861588 191.96556103 375.52980448 196.42829428 383.02734375 200.953125 C389.07260713 204.57996875 395.16612109 208.12596875 401.25 211.6875 C410.93483801 217.35717041 420.6169455 223.03093624 430.26928711 228.75585938 C434.83714652 231.46437528 439.41503264 234.15314668 444.01171875 236.8125 C481.58756603 258.6173593 508.30661454 287.45947007 520.375 329.875 C528.07016475 360.34411385 526.06775034 395.25426755 511.375 423.4375 C510.85679687 424.44804443 510.85679687 424.44804443 510.328125 425.47900391 C502.91366768 439.80207874 494.14085982 451.61993014 483.1875 463.4375 C482.66027344 464.03046875 482.13304687 464.6234375 481.58984375 465.234375 C469.65601144 478.05332531 453.35308398 486.13542165 438.32617188 494.64453125 C433.92798434 497.1569993 429.58392308 499.75365385 425.25 502.375 C417.31572909 507.16606005 409.35214094 511.90581467 401.375 516.625 C394.40371996 520.74957445 387.43459437 524.87648293 380.5 529.0625 C369.14149908 535.89575341 357.65439466 542.51299042 346.19628906 549.17724609 C331.21653058 557.89179153 316.28945474 566.69234168 301.38720703 575.53857422 C281.74864118 587.19344719 262.06207194 598.76385171 242.26538086 610.1484375 C232.78946077 615.59860356 223.35258073 621.09904039 213.99487305 626.74975586 C206.78046912 631.0996276 199.52013277 635.36925119 192.25 639.625 C191.63685944 639.98397369 191.02371887 640.34294739 190.39199829 640.71279907 C186.6188279 642.92154885 182.84487609 645.12896087 179.07073975 647.33605957 C160.86563777 657.98358089 142.68764023 668.67444816 124.55224609 679.44042969 C121.12532331 681.47440359 117.697644 683.50709514 114.26953125 685.5390625 C113.69774643 685.8779953 113.12596161 686.2169281 112.53684998 686.56613159 C109.69090245 688.25293733 106.84455156 689.93905861 103.99780273 691.62451172 C98.64485795 694.79392026 93.29494272 697.96811752 87.953125 701.15625 C86.96803955 701.74253174 85.9829541 702.32881348 84.96801758 702.93286133 C83.14847683 704.01583573 81.33045568 705.10136993 79.5144043 706.19018555 C68.14311216 712.94687852 56.83794538 717.69087068 44.1875 721.4375 C43.48608887 721.6535791 42.78467773 721.8696582 42.06201172 722.09228516 C30.81271852 725.43968769 19.59142615 725.80396904 7.9375 725.8125 C7.22037842 725.81449402 6.50325684 725.81648804 5.7644043 725.81854248 C-30.72586143 725.80705968 -65.82090023 712.76362276 -92.19140625 687.06640625 C-93.05636719 686.19886719 -93.92132813 685.33132813 -94.8125 684.4375 C-95.72902344 683.58027344 -96.64554688 682.72304688 -97.58984375 681.83984375 C-112.01139002 668.10600094 -122.8171017 651.04705317 -129.8125 632.4375 C-130.05742187 631.81004883 -130.30234375 631.18259766 -130.5546875 630.53613281 C-134.67064348 619.95588458 -137.16919576 609.65689373 -138.8125 598.4375 C-138.98598803 597.53527747 -139.15947607 596.63305495 -139.33822131 595.70349234 C-139.88419563 591.94378734 -139.95315704 588.26354385 -139.94392776 584.47459126 C-139.9459804 583.68657839 -139.94803303 582.89856552 -139.95014787 582.08667347 C-139.95580935 579.44198796 -139.95436166 576.79735468 -139.95294189 574.15266418 C-139.95552604 572.23886944 -139.95853934 570.32507523 -139.9619453 568.41128176 C-139.97001319 563.14838343 -139.97180476 557.88549874 -139.97254276 552.62259495 C-139.97439377 546.94743365 -139.98194152 541.27227941 -139.98867798 535.59712219 C-140.00226206 523.18337547 -140.00828662 510.76963198 -140.01268864 498.35587907 C-140.01545189 490.60100311 -140.01968949 482.8461284 -140.02419281 475.09125328 C-140.03638739 453.6116952 -140.0467205 432.13213874 -140.0500679 410.6525774 C-140.05028953 409.26377292 -140.05051132 407.87496844 -140.05073325 406.48616396 C-140.05095389 405.09405947 -140.05117437 403.70195499 -140.0513947 402.30985051 C-140.05183724 399.51719526 -140.05228436 396.72454001 -140.05273438 393.93188477 C-140.05284377 393.23946981 -140.05295316 392.54705486 -140.05306586 391.83365763 C-140.05669287 369.40470361 -140.07259869 346.97578199 -140.09592474 324.54684038 C-140.12056076 300.81472958 -140.13423586 277.08264103 -140.13543582 253.3505165 C-140.13635122 240.42175282 -140.14206907 227.49303153 -140.16025543 214.56427956 C-140.17569407 203.55011223 -140.18075485 192.53600038 -140.17251733 181.52182428 C-140.16862366 175.90737319 -140.16947736 170.29303369 -140.18357468 164.6785965 C-140.19639126 159.52681621 -140.19504858 154.37523046 -140.18298396 149.22345015 C-140.18104027 147.37135028 -140.18404306 145.51923625 -140.19282833 143.6671562 C-140.35277303 107.63219944 -128.88847883 72.83451984 -103.6953125 46.33203125 C-102.76332031 45.39423828 -102.76332031 45.39423828 -101.8125 44.4375 C-100.966875 43.57125 -100.12125 42.705 -99.25 41.8125 C-98.445625 41.02875 -97.64125 40.245 -96.8125 39.4375 C-96.28914063 38.86902344 -95.76578125 38.30054688 -95.2265625 37.71484375 C-70.97435169 11.97884789 -34.54599464 -0.0175096 0 0 Z " fill="#111721" transform="translate(279.8125,44.5625)"/>
<path d="M0 0 C4.27993577 1.96870846 8.20402096 4.43168849 12.1875 6.9375 C13.37654762 7.66678665 14.56684395 8.39404079 15.75830078 9.11938477 C18.25374805 10.63972917 20.74456599 12.1672802 23.23291016 13.69921875 C28.63295497 17.01128802 34.10482286 20.19976979 39.57772827 23.38943481 C41.98827943 24.79512918 44.3958808 26.2058355 46.80354309 27.61647034 C50.50784813 29.78668398 54.21348329 31.95462634 57.91894531 34.12286377 C62.40478602 36.74774093 66.8902592 39.37324398 71.375 42 C71.99550232 42.36342499 72.61600464 42.72684998 73.25531006 43.10128784 C80.81111588 47.52806103 88.34230448 51.99079428 95.83984375 56.515625 C101.88510713 60.14246875 107.97862109 63.68846875 114.0625 67.25 C123.74733801 72.91967041 133.4294455 78.59343624 143.08178711 84.31835938 C147.64964652 87.02687528 152.22753264 89.71564668 156.82421875 92.375 C194.40006603 114.1798593 221.11911454 143.02197007 233.1875 185.4375 C240.88266475 215.90661385 238.88025034 250.81676755 224.1875 279 C223.66929687 280.01054443 223.66929687 280.01054443 223.140625 281.04150391 C215.72616768 295.36457874 206.95335982 307.18243014 196 319 C195.47277344 319.59296875 194.94554687 320.1859375 194.40234375 320.796875 C182.46851144 333.61582531 166.16558398 341.69792165 151.13867188 350.20703125 C146.74048434 352.7194993 142.39642308 355.31615385 138.0625 357.9375 C130.12822909 362.72856005 122.16464094 367.46831467 114.1875 372.1875 C107.21621996 376.31207445 100.24709437 380.43898293 93.3125 384.625 C81.95399908 391.45825341 70.46689466 398.07549042 59.00878906 404.73974609 C44.02903058 413.45429153 29.10195474 422.25484168 14.19970703 431.10107422 C-5.43885882 442.75594719 -25.12542806 454.32635171 -44.92211914 465.7109375 C-54.39803923 471.16110356 -63.83491927 476.66154039 -73.19262695 482.31225586 C-80.40703088 486.6621276 -87.66736723 490.93175119 -94.9375 495.1875 C-95.85721085 495.72596054 -95.85721085 495.72596054 -96.79550171 496.27529907 C-100.5686721 498.48404885 -104.34262391 500.69146087 -108.11676025 502.89855957 C-126.32186223 513.54608089 -144.49985977 524.23694816 -162.63525391 535.00292969 C-166.06217669 537.03690359 -169.489856 539.06959514 -172.91796875 541.1015625 C-173.48975357 541.4404953 -174.06153839 541.7794281 -174.65065002 542.12863159 C-177.49659755 543.81543733 -180.34294844 545.50155861 -183.18969727 547.18701172 C-188.54264205 550.35642026 -193.89255728 553.53061752 -199.234375 556.71875 C-200.21946045 557.30503174 -201.2045459 557.89131348 -202.21948242 558.49536133 C-204.03902317 559.57833573 -205.85704432 560.66386993 -207.6730957 561.75268555 C-219.04438784 568.50937852 -230.34955462 573.25337068 -243 577 C-243.70141113 577.2160791 -244.40282227 577.4321582 -245.12548828 577.65478516 C-256.37478148 581.00218769 -267.59607385 581.36646904 -279.25 581.375 C-279.96712158 581.37699402 -280.68424316 581.37898804 -281.4230957 581.38104248 C-305.19641005 581.37356146 -325.39736363 575.5563803 -347 566 C-347 565.67 -347 565.34 -347 565 C-346.41621582 564.98018066 -345.83243164 564.96036133 -345.23095703 564.93994141 C-342.52859732 564.84337139 -339.82687606 564.73424027 -337.125 564.625 C-336.2071875 564.5940625 -335.289375 564.563125 -334.34375 564.53125 C-317.18694281 563.80631449 -296.68865519 559.14661657 -282 550 C-278.96213931 548.35478445 -275.91288354 546.7346929 -272.85693359 545.12353516 C-269.93230504 543.57710701 -267.03235999 542.01881707 -264.171875 540.35546875 C-258.84315585 537.25794642 -253.57081587 535.07110444 -247.75 533.125 C-233.74760273 528.38235153 -221.54042182 520.59493556 -208.94848633 512.97827148 C-201.41726663 508.42603034 -193.82622755 503.99405682 -186.1875 499.625 C-176.82714167 494.26558301 -167.57719055 488.74952195 -158.375 483.125 C-149.87221508 477.92808798 -141.33385963 472.83955167 -132.61328125 468.015625 C-128.70203298 465.84874025 -124.84919549 463.58737409 -121 461.3125 C-114.26316045 457.33132154 -107.51157687 453.37653548 -100.75 449.4375 C-91.72387292 444.17569381 -82.70216839 438.90641023 -73.6875 433.625 C-73.07937469 433.26874542 -72.47124939 432.91249084 -71.84469604 432.54544067 C-62.98255519 427.35209932 -54.14258709 422.12268981 -45.3125 416.875 C-36.57810297 411.68528122 -27.80917903 406.56170845 -19 401.5 C-6.20697156 394.14706515 6.48901653 386.63603911 19.16870117 379.08978271 C25.06940835 375.57834668 30.97193559 372.06997149 36.875 368.5625 C37.5448291 368.16444153 38.2146582 367.76638306 38.90478516 367.35626221 C49.82743802 360.86674742 60.77730177 354.42482657 71.74267578 348.0078125 C80.86921253 342.66666888 89.97715196 337.29471479 99.078125 331.91015625 C103.54770998 329.26596916 108.02274496 326.63117296 112.5 324 C114.56419876 322.78576544 116.62829395 321.57135495 118.69238281 320.35693359 C120.35804221 319.37748639 122.02410858 318.39873117 123.69042969 317.42041016 C130.1387931 313.63339823 136.57792037 309.83143744 143 306 C143.61697754 305.63245605 144.23395508 305.26491211 144.86962891 304.88623047 C170.11399977 289.73650191 184.71967869 267.89722154 192.421875 239.73046875 C197.61511739 215.20292531 192.57351945 190.33474403 179.5625 169.125 C168.70746136 152.95172095 155.73939895 141.44395995 138.67260742 132.21240234 C131.675446 128.41962848 124.83421901 124.39060015 118 120.3125 C108.83067117 114.8468831 99.62918701 109.44625932 90.375 104.125 C82.69798728 99.71040552 75.03337447 95.27859527 67.40771484 90.77587891 C60.24472055 86.54771046 53.05632778 82.36331786 45.86938477 78.17602539 C40.00713461 74.75897695 34.15479796 71.32601872 28.3125 67.875 C21.38769065 63.78968704 14.41463562 59.79217234 7.42895508 55.81201172 C0.27165968 51.7326439 -6.86667725 47.62112582 -14 43.5 C-25.31348294 36.96507556 -36.64890824 30.4693541 -48 24 C-48 23.34 -48 22.68 -48 22 C-47.35675781 21.65332275 -46.71351563 21.30664551 -46.05078125 20.94946289 C-44.12588752 19.91133146 -42.2014488 18.87235614 -40.27734375 17.83276367 C-38.08302207 16.6474965 -35.88769958 15.4640804 -33.69140625 14.2824707 C-28.7912013 11.63721136 -23.90964173 8.98284782 -19.125 6.1328125 C-18.41730469 5.71507568 -17.70960938 5.29733887 -16.98046875 4.86694336 C-15.70338431 4.10639172 -14.4343493 3.33207575 -13.17578125 2.54125977 C-8.82655688 -0.03467832 -4.93231987 -1.19700652 0 0 Z " fill="#045BFD" transform="translate(567,189)"/>
<path d="M0 0 C1.07962232 -0.00128164 1.07962232 -0.00128164 2.18105519 -0.00258917 C4.58086305 -0.00422979 6.98060024 0.00125409 9.38040161 0.00672913 C11.10540261 0.00701133 12.83040373 0.00685261 14.55540466 0.00628662 C19.23053065 0.00599994 23.90563093 0.01187579 28.58075094 0.01886058 C33.4694617 0.02511564 38.35817306 0.02569962 43.24688721 0.02688599 C52.50088532 0.02999295 61.75487161 0.0381978 71.00886452 0.04823548 C81.54568187 0.05941631 92.08249978 0.06491203 102.61932158 0.06993091 C124.29115304 0.08038093 145.96297384 0.09796809 167.63479614 0.12025452 C167.63479614 0.78025452 167.63479614 1.44025452 167.63479614 2.12025452 C166.68604614 2.86275452 165.73729614 3.60525452 164.75979614 4.37025452 C154.00330731 13.34486035 145.83104721 28.33580276 141.02908325 41.34339905 C140.76590805 42.05368256 140.50273285 42.76396606 140.23158264 43.49577332 C140.0346431 44.03185211 139.83770355 44.56793091 139.63479614 45.12025452 C138.63729733 45.12245436 138.63729733 45.12245436 137.61964703 45.12469864 C121.40092386 45.16183197 105.18244222 45.22093267 88.96389294 45.30415726 C81.12054817 45.34388121 73.27730277 45.37630729 65.43386841 45.39125061 C58.59349359 45.40430175 51.75333802 45.43135406 44.91308671 45.47486758 C41.29482429 45.49740515 37.6768315 45.51316987 34.05849266 45.51213837 C30.00834347 45.51124713 25.95898332 45.5416296 21.90896606 45.57435608 C20.72356735 45.56932571 19.53816864 45.56429535 18.31684875 45.55911255 C4.75630573 45.72795935 -4.72728005 50.33146881 -14.11520386 59.93275452 C-19.3175882 67.302799 -22.05932473 74.60550611 -23.61520386 83.43275452 C-25.73639888 94.48101757 -28.29877079 105.38785676 -30.99020386 116.30775452 C-31.28127014 117.48949753 -31.28127014 117.48949753 -31.57821655 118.69511414 C-31.95967299 120.24359569 -32.34118749 121.79206294 -32.72276306 123.34051514 C-34.20185497 129.34776717 -35.68038662 135.35522922 -37.11129761 141.37416077 C-37.34518188 142.3532843 -37.57906616 143.33240784 -37.82003784 144.34120178 C-39.25497029 151.65595145 -39.16710062 158.37793751 -35.76364136 165.11244202 C-31.94788694 170.59092741 -26.66636041 173.34644932 -20.36520386 175.12025452 C-17.68699807 175.32070422 -15.10915744 175.43103823 -12.43209839 175.43910217 C-11.66069016 175.4491478 -10.88928192 175.45919342 -10.09449768 175.46954346 C-7.56234434 175.50026304 -5.03029618 175.5173791 -2.49801636 175.53431702 C-0.73538312 175.55303772 1.02724124 175.5726118 2.78985596 175.59300232 C7.41591142 175.64423426 12.04199592 175.68390772 16.66818237 175.72114563 C21.39410531 175.76124142 26.11990842 175.81230829 30.84573364 175.86244202 C40.1086702 175.95909542 49.37167455 176.04353398 58.63479614 176.12025452 C58.7624939 175.17851379 58.89019165 174.23677307 59.02175903 173.26649475 C59.19441284 172.02069641 59.36706665 170.77489807 59.54495239 169.49134827 C59.71390015 168.26085754 59.8828479 167.03036682 60.05691528 165.7625885 C60.7302695 161.51849405 61.73893188 157.43667795 62.84182739 153.28822327 C64.09287695 148.29018782 65.02394805 143.235359 65.98635864 138.17494202 C66.63479614 135.12025452 66.63479614 135.12025452 67.63479614 133.12025452 C49.81479614 133.12025452 31.99479614 133.12025452 13.63479614 133.12025452 C14.8262576 125.9714858 15.78892683 120.27032545 17.91604614 113.61244202 C18.67524752 110.97999375 19.17581749 108.38307894 19.63479614 105.68275452 C20.63973009 100.09280942 22.14040559 94.59968654 23.63479614 89.12025452 C58.61479614 89.12025452 93.59479614 89.12025452 129.63479614 89.12025452 C128.50956627 98.12209353 128.50956627 98.12209353 127.80618286 101.40785217 C127.6484137 102.15234619 127.49064453 102.89684021 127.32809448 103.66389465 C127.15860291 104.44613403 126.98911133 105.22837341 126.81448364 106.03431702 C126.63500183 106.87456421 126.45552002 107.7148114 126.27059937 108.58052063 C125.6875564 111.30295161 125.09903951 114.02415935 124.50979614 116.74525452 C124.30948792 117.67533325 124.10917969 118.60541199 123.90280151 119.56367493 C120.55849257 135.08898991 117.10396177 150.58694174 113.37942505 166.02601624 C112.8758077 168.11875271 112.38359465 170.21426127 111.90188599 172.31214905 C110.48901717 178.30395036 108.83527533 183.7698709 106.00979614 189.24525452 C105.66569702 189.92120667 105.3215979 190.59715881 104.96707153 191.29359436 C101.71857132 197.41090944 97.65573305 202.34579997 92.63479614 207.12025452 C92.04956177 207.7016217 91.46432739 208.28298889 90.86135864 208.88197327 C86.35676531 213.07991588 81.18517358 215.55425088 75.63479614 218.12025452 C75.02472151 218.46711398 74.41464687 218.81397345 73.78608513 219.1713438 C71.31148015 220.26286577 69.5796254 220.37424828 66.88214111 220.38095093 C65.92924698 220.38803574 64.97635284 220.39512054 63.99458313 220.40242004 C62.95562393 220.39994263 61.91666473 220.39746521 60.84622192 220.39491272 C59.7464653 220.40002365 58.64670868 220.40513458 57.5136261 220.41040039 C53.86906521 220.42432515 50.22469303 220.42333621 46.58010864 220.42103577 C44.04103526 220.42492355 41.50196252 220.42925839 38.96289062 220.434021 C33.63149648 220.44149119 28.30017141 220.44132644 22.96878052 220.43592834 C16.83862764 220.42991576 10.70870587 220.44212925 4.57859242 220.46349841 C-1.34486531 220.48337619 -7.26825284 220.48627092 -13.19174576 220.48276329 C-15.69774032 220.48327397 -18.20373876 220.48846381 -20.70971298 220.49857521 C-42.99704893 220.5774053 -62.10129265 219.48301028 -78.73239136 202.97962952 C-88.96097411 191.87084231 -93.61890976 176.64744806 -93.48141479 161.71961975 C-93.3055501 157.78594037 -92.65272108 154.03512866 -91.86520386 150.18275452 C-91.69287231 149.31070374 -91.52054077 148.43865295 -91.34298706 147.54017639 C-86.79407017 125.04122202 -81.34027034 102.70502621 -75.88082886 80.41322327 C-74.9641784 76.65417197 -74.08510717 72.89451249 -73.28707886 69.10853577 C-67.91680953 43.77602503 -54.62602948 23.99677809 -33.05270386 9.37025452 C-22.87427272 3.08185597 -11.90190919 -0.00853795 0 0 Z " fill="#121722" transform="translate(302.3652038574219,302.87974548339844)"/>
<path d="M0 0 C1.24030975 -0.00029205 2.48061951 -0.00058411 3.7585144 -0.00088501 C7.1235572 0.00026067 10.48834745 0.01021561 13.85334563 0.02426291 C17.38336791 0.03685788 20.91339439 0.03794761 24.44343567 0.04031372 C31.11192782 0.04650294 37.78035355 0.06287872 44.4488166 0.0830127 C52.0474667 0.10545184 59.64612016 0.11638519 67.2447952 0.12640357 C82.86090765 0.14724754 98.47695401 0.18237316 114.09301758 0.22705078 C112.96854766 3.73756193 111.78927152 7.08459308 110.13769531 10.38061523 C109.76067978 11.13772293 109.38366425 11.89483063 108.995224 12.67488098 C108.59308182 13.47197983 108.19093964 14.26907867 107.77661133 15.09033203 C107.36008804 15.92292038 106.94356476 16.75550873 106.51441956 17.61332703 C105.63797576 19.36320568 104.7595976 21.11211669 103.87939453 22.86010742 C102.52733511 25.54587252 101.18178258 28.23482251 99.8371582 30.92431641 C98.98402129 32.62567824 98.13051859 34.32685671 97.27661133 36.02783203 C96.87244492 36.83505203 96.4682785 37.64227203 96.05186462 38.47395325 C93.20910337 44.11096499 93.20910337 44.11096499 92.09301758 45.22705078 C89.13266305 45.33110765 86.19487338 45.37066003 83.23388672 45.36889648 C82.30370728 45.37237091 81.37352783 45.37584534 80.41516113 45.37942505 C78.38642543 45.3867987 76.35768157 45.39213546 74.32893562 45.39571571 C71.11256976 45.40286672 67.89635775 45.41852599 64.68003845 45.4370575 C55.53183185 45.4895702 46.38370541 45.53744815 37.23535156 45.55297852 C31.64489256 45.56309251 26.05481435 45.59251227 20.46450615 45.63429832 C18.33761928 45.64657332 16.21067851 45.65173601 14.0837574 45.64949989 C11.09432944 45.64713197 8.10598071 45.66942959 5.11669922 45.69702148 C4.24720139 45.69042007 3.37770355 45.68381866 2.4818573 45.67701721 C-5.56402268 45.79809907 -12.77216973 47.97206119 -18.78198242 53.47705078 C-24.94606995 60.38432617 -26.35166702 65.91540875 -26.34057617 75.17626953 C-25.85531955 78.59055264 -24.94642032 80.46781127 -22.90698242 83.22705078 C-17.37729853 87.3743137 -13.38459353 88.37402457 -6.62841797 88.36889648 C-5.88968948 88.37237091 -5.150961 88.37584534 -4.3898468 88.37942505 C-2.78404683 88.38677794 -1.17823673 88.39212581 0.42757607 88.39571571 C2.98151898 88.40290301 5.53527216 88.41859141 8.0891571 88.4370575 C15.3515647 88.4893846 22.61387327 88.53737786 29.87646484 88.55297852 C34.32164795 88.56315178 38.76635969 88.59271893 43.21135521 88.63429832 C44.89393712 88.64649194 46.576586 88.65175122 48.25921059 88.64949989 C64.57846626 88.63305536 79.51808032 91.12135867 92.37036133 102.18798828 C103.15356779 113.32304601 107.48943635 127.28011481 107.46435547 142.44067383 C106.93148339 162.79373405 98.2441416 185.34495561 84.30786133 200.13720703 C67.3746289 216.11477202 48.08509474 220.39756188 25.6809082 220.34057617 C24.12309776 220.34029377 22.56528718 220.34045308 21.00747681 220.34101868 C16.79732924 220.34130457 12.58721039 220.3354415 8.37706947 220.32844472 C3.97017184 220.32217651 -0.43672652 220.32160464 -4.84362793 220.32041931 C-13.18028653 220.3173162 -21.51693196 220.3091166 -29.85358477 220.29906982 C-39.34814648 220.28787696 -48.84270883 220.28239025 -58.33727551 220.27737439 C-77.8605186 220.26693311 -97.38374945 220.24935347 -116.90698242 220.22705078 C-115.78064383 216.70800224 -114.59724174 213.35836595 -112.93579102 210.05761719 C-112.36542618 208.91711411 -112.36542618 208.91711411 -111.78353882 207.75357056 C-111.17561996 206.55321671 -111.17561996 206.55321671 -110.55541992 205.32861328 C-110.13652496 204.49365326 -109.71763 203.65869324 -109.28604126 202.7984314 C-107.95511806 200.14772645 -106.61864136 197.49986725 -105.28198242 194.85205078 C-104.37536362 193.04885074 -103.46910962 191.24546724 -102.56323242 189.44189453 C-100.34870058 185.03481119 -98.12918584 180.63027049 -95.90698242 176.22705078 C-94.90671823 176.22346825 -94.90671823 176.22346825 -93.88624668 176.21981335 C-77.63487285 176.16058929 -61.38366516 176.08499206 -45.13245487 175.99133587 C-37.27337551 175.94643558 -29.41434089 175.90700773 -21.55517578 175.88061523 C-14.70239747 175.85758831 -7.8497614 175.82413818 -0.997096 175.77834922 C2.62888427 175.75448 6.25472422 175.7357101 9.88078117 175.72943687 C13.93602308 175.72222533 17.99077878 175.69173605 22.04589844 175.65942383 C23.2384877 175.66085892 24.43107697 175.66229401 25.6598053 175.66377258 C36.02158151 175.54721559 43.53505654 173.80028887 51.13989258 166.52783203 C56.07072633 160.71930987 57.81511041 154.02966267 57.48364258 146.48876953 C56.71370049 142.03080482 54.33606628 139.31942691 51.03051758 136.41455078 C47.05743569 133.97943608 43.29957811 134.07031533 38.79858398 134.0534668 C38.05824921 134.04677979 37.31791443 134.04009277 36.55514526 134.03320312 C34.94607817 134.01915327 33.33699116 134.007259 31.72789383 133.99725533 C29.17003544 133.98079912 26.61232127 133.95755269 24.05453491 133.93235779 C16.78114079 133.86175771 9.50768376 133.80187107 2.23413086 133.75024414 C-2.21740896 133.71816962 -6.66878878 133.67681267 -11.1201973 133.63004875 C-12.80640358 133.61418153 -14.49264673 133.60179088 -16.17890549 133.59314156 C-42.315479 133.45728706 -42.315479 133.45728706 -53.28198242 127.53955078 C-53.96115723 127.1828833 -54.64033203 126.82621582 -55.34008789 126.45874023 C-66.64397084 120.30950442 -72.41002819 110.78787832 -76.29614258 98.65039062 C-81.50498912 77.98571804 -74.16627866 52.00891708 -63.93920898 33.93115234 C-61.34007824 29.6402506 -58.32024683 25.88843068 -54.90698242 22.22705078 C-54.28178711 21.52322266 -53.6565918 20.81939453 -53.01245117 20.09423828 C-38.77199521 4.83867853 -20.20955035 -0.12658393 0 0 Z " fill="#045BFD" transform="translate(536.906982421875,302.77294921875)"/>
<path d="M0 0 C24.09 0 48.18 0 73 0 C73 0.33 73 0.66 73 1 C74.65 1.33 76.3 1.66 78 2 C78.33 1.34 78.66 0.68 79 0 C79 0.99 79 1.98 79 3 C52.93 3 26.86 3 0 3 C0 2.01 0 1.02 0 0 Z " fill="#E8E8E9" transform="translate(282,476)"/>
<path d="M0 0 C42.9 0 85.8 0 130 0 C130 0.33 130 0.66 130 1 C87.76 1.33 45.52 1.66 2 2 C1.67 2.66 1.34 3.32 1 4 C0.34 4 -0.32 4 -1 4 C-0.67 2.68 -0.34 1.36 0 0 Z " fill="#226BFB" transform="translate(441,479)"/>
<path d="M0 0 C-6.00501837 4.21652012 -12.32961925 3.11877195 -19.375 2.6875 C-20.58800781 2.62626953 -21.80101562 2.56503906 -23.05078125 2.50195312 C-26.03494441 2.34922036 -29.01746767 2.18144321 -32 2 C-32 1.67 -32 1.34 -32 1 C-31.25838623 0.97494385 -30.51677246 0.9498877 -29.75268555 0.92407227 C-26.39744672 0.80813868 -23.04249056 0.68540015 -19.6875 0.5625 C-17.93663086 0.50352539 -17.93663086 0.50352539 -16.15039062 0.44335938 C-15.03212891 0.40146484 -13.91386719 0.35957031 -12.76171875 0.31640625 C-11.73006592 0.27974854 -10.69841309 0.24309082 -9.63549805 0.20532227 C-1.4046189 -0.43591621 -1.4046189 -0.43591621 0 0 Z " fill="#4F5463" transform="translate(309,727)"/>
<path d="M0 0 C0.66 0.99 1.32 1.98 2 3 C1.01 4.98 0.02 6.96 -1 9 C-1.66 9 -2.32 9 -3 9 C-3.33 10.98 -3.66 12.96 -4 15 C-4.66 15 -5.32 15 -6 15 C-6 15.66 -6 16.32 -6 17 C-6.66 17 -7.32 17 -8 17 C-6.3341708 10.83643195 -3.12194714 5.51740344 0 0 Z " fill="#242833" transform="translate(160,112)"/>
<path d="M0 0 C0.66 0.33 1.32 0.66 2 1 C0.649239 5.05228301 -1.83819702 6.54568797 -5.08984375 9.18359375 C-7.02441554 11.02321723 -7.97471492 12.55756696 -9 15 C-9.66 15 -10.32 15 -11 15 C-9.2645544 8.82952674 -4.42122925 4.42122925 0 0 Z " fill="#E9EAEB" transform="translate(294,356)"/>
<path d="M0 0 C1.423125 0.2165625 1.423125 0.2165625 2.875 0.4375 C7.56740347 1.11197278 12.28134412 1.55376896 17 2 C16.01 3.485 16.01 3.485 15 5 C15.33 5.66 15.66 6.32 16 7 C10.53262809 5.25192871 5.24175152 3.34205919 0 1 C0 0.67 0 0.34 0 0 Z " fill="#3380F9" transform="translate(220,754)"/>
<path d="M0 0 C-0.33 0.99 -0.66 1.98 -1 3 C-2.99609375 3.765625 -2.99609375 3.765625 -5.4375 4.25 C-6.24058594 4.42015625 -7.04367187 4.5903125 -7.87109375 4.765625 C-10 5 -10 5 -12 4 C-7.84698176 1.34668279 -4.92975386 0 0 0 Z " fill="#DCDDDF" transform="translate(311,349)"/>
<path d="M0 0 C0.66 0.33 1.32 0.66 2 1 C-2.05387741 5.81397943 -5.0217942 6.88541926 -11 8 C-8.83385197 5.69125289 -6.60793392 3.94709819 -3.9375 2.25 C-2.89916016 1.57710937 -2.89916016 1.57710937 -1.83984375 0.890625 C-1.23269531 0.59671875 -0.62554687 0.3028125 0 0 Z " fill="#2168FA" transform="translate(349,707)"/>
<path d="M0 0 C0.99 0.33 1.98 0.66 3 1 C-0.222107 4.8665284 -3.14922412 5.88059018 -8 7 C-5.42215154 4.35247996 -3.08351902 2.05567935 0 0 Z " fill="#226DFC" transform="translate(497,312)"/>
<path d="M0 0 C0.66 0.33 1.32 0.66 2 1 C2 1.66 2 2.32 2 3 C1.34 3 0.68 3 0 3 C-0.66 4.32 -1.32 5.64 -2 7 C-2.66 7 -3.32 7 -4 7 C-4 7.99 -4 8.98 -4 10 C-4.99 9.67 -5.98 9.34 -7 9 C-4.69 6.03 -2.38 3.06 0 0 Z " fill="#2066F9" transform="translate(742,467)"/>
<path d="M0 0 C0.33 0.66 0.66 1.32 1 2 C1.66 2.33 2.32 2.66 3 3 C2.01 5.31 1.02 7.62 0 10 C-0.66 10 -1.32 10 -2 10 C-1.34 6.7 -0.68 3.4 0 0 Z " fill="#20242E" transform="translate(147,139)"/>
<path d="M0 0 C0.33 0.99 0.66 1.98 1 3 C-1.8125 5.0625 -1.8125 5.0625 -5 7 C-5.99 6.67 -6.98 6.34 -8 6 C-5.36 4.02 -2.72 2.04 0 0 Z " fill="#272C36" transform="translate(198,71)"/>
<path d="M0 0 C0.33 0.99 0.66 1.98 1 3 C-0.65 3.33 -2.3 3.66 -4 4 C-4 4.66 -4 5.32 -4 6 C-5.65 6 -7.3 6 -9 6 C-6.11964908 3.75972706 -3.15133488 1.83827868 0 0 Z " fill="#1766FC" transform="translate(542,594)"/>
<path d="M0 0 C0.66 0 1.32 0 2 0 C0.87548273 2.9719385 -0.22293791 5.33440687 -2 8 C-2.66 8 -3.32 8 -4 8 C-2.25 2.25 -2.25 2.25 0 0 Z " fill="#1664FC" transform="translate(754,448)"/>
<path d="M0 0 C0.66 0.33 1.32 0.66 2 1 C1.67 5.29 1.34 9.58 1 14 C0.67 14 0.34 14 0 14 C-0.19627391 12.41773035 -0.38165538 10.83410729 -0.5625 9.25 C-0.66691406 8.36828125 -0.77132812 7.4865625 -0.87890625 6.578125 C-0.99456676 4.11567549 -0.73638695 2.33461936 0 0 Z " fill="#3D414A" transform="translate(182,168)"/>
<path d="M0 0 C0.99 0.33 1.98 0.66 3 1 C2.319375 1.61875 2.319375 1.61875 1.625 2.25 C-0.05950374 4.06408095 -0.99265971 5.75285627 -2 8 C-2.66 8 -3.32 8 -4 8 C-2.87548273 5.0280615 -1.77706209 2.66559313 0 0 Z " fill="#DDDDDF" transform="translate(287,363)"/>
<path d="M0 0 C0.33 0.99 0.66 1.98 1 3 C-2.13498292 4.85776765 -4.37471432 5.20140476 -8 5 C-5.44008376 2.98863724 -2.95409701 1.37154504 0 0 Z " fill="#206DFC" transform="translate(552,193)"/>
<path d="M0 0 C0.66 0 1.32 0 2 0 C2.6875 1.6875 2.6875 1.6875 3 4 C1.5625 6.75 1.5625 6.75 0 9 C-1.10844919 5.67465243 -0.84454356 3.37817425 0 0 Z " fill="#282C35" transform="translate(368,442)"/>
<path d="M0 0 C1.65 0.33 3.3 0.66 5 1 C5 1.66 5 2.32 5 3 C5.99 3.33 6.98 3.66 8 4 C4.7 3.67 1.4 3.34 -2 3 C-1.34 2.01 -0.68 1.02 0 0 Z " fill="#4E525A" transform="translate(292,87)"/>
<path d="M0 0 C-1.50663783 3.01327566 -4.03166411 3.61056618 -7 5 C-7.66 4.34 -8.32 3.68 -9 3 C-3.375 0 -3.375 0 0 0 Z " fill="#343842" transform="translate(224,57)"/>
<path d="M0 0 C3.96 0.33 7.92 0.66 12 1 C12 1.33 12 1.66 12 2 C10.56589632 2.24954005 9.12739928 2.47392642 7.6875 2.6875 C6.88699219 2.81511719 6.08648437 2.94273438 5.26171875 3.07421875 C3 3 3 3 0 0 Z " fill="#5C6067" transform="translate(293,45)"/>
</svg>
